<svg id="Layer_1_1_" enable-background="new 0 0 64 64" height="512" viewBox="0 0 64 64" width="512" xmlns="http://www.w3.org/2000/svg"><path d="m4 62h56c.552 0 1-.448 1-1v-48c0-.552-.448-1-1-1h-22v2h5v6h-22v-6h5v-2h-22c-.552 0-1 .448-1 1v48c0 .552.448 1 1 1zm1-8h6v6h-6zm8 0h6v6h-6zm8 0h6v6h-6zm8 0h6v6h-6zm8 0h6v6h-6zm8 0h6v6h-6zm8-8h6v6h-6zm0-2v-6h6v6zm0-8v-6h6v6zm0-8v-6h6v6zm-2 24h-38v-30h38zm-40-24h-6v-6h6zm0 2v6h-6v-6zm0 8v6h-6v-6zm0 8v6h-6v-6zm42 14v-6h6v6zm6-40h-6v-6h6zm-14-6h6v6h-6zm-26 6h-6v-6h6zm-8-6v6h-6v-6z"/><path d="m35.966 8.639c-.071-.267-.2-.521-.371-.736-.771-.971-1.907-1.426-3.035-1.226-1.088.196-1.979.97-2.322 2.02-.26.795-.174 1.67.19 2.387l-3.652 4.043c-.456.504-.623 1.197-.449 1.854.175.657.665 1.175 1.311 1.387l4.678 1.531c.205.067.416.1.625.1.449 0 .891-.152 1.252-.443.529-.426.804-1.084.734-1.761l-.599-5.436c1.387-.628 2.06-2.159 1.638-3.72zm-2.463 1.899c-.759.344-1.209 1.149-1.122 2.001l.558 5.459-4.678-1.531 3.653-4.043c.59-.654.712-1.582.304-2.308-.139-.246-.167-.529-.079-.797.115-.35.412-.608.775-.673.059-.011.118-.016.176-.016.342 0 .671.181.945.529.202.747-.142 1.202-.532 1.379z"/><path d="m39.583 5.049c.484-.087 1.008-.055 1.482.102l.626-1.899c-.786-.259-1.643-.319-2.466-.17z"/><path d="m38.237 5.669-1.26-1.554c-.649.527-1.16 1.212-1.477 1.983l1.85.761c.19-.462.497-.874.887-1.19z"/><path d="m43.032 7.249 1.937-.498c-.208-.807-.62-1.557-1.193-2.168l-1.46 1.367c.344.367.591.816.716 1.299z"/><path d="m58.139 5.634c-.4-.729-.922-1.375-1.55-1.921l-1.313 1.51c.45.391.824.854 1.11 1.375z"/><path d="m57 9c0 .348-.036.697-.107 1.036l1.957.41c.1-.474.15-.96.15-1.446 0-.343-.025-.687-.074-1.021l-1.979.29c.035.238.053.482.053.731z"/><path d="m54.467 2.447c-.778-.292-1.595-.443-2.43-.447l-.01 2c.597.003 1.181.11 1.735.319z"/><path d="m48.763 5.189c.454-.387.967-.686 1.524-.889l-.686-1.879c-.781.285-1.499.704-2.135 1.244z"/><path d="m16 48h14c.552 0 1-.448 1-1v-2h1c.552 0 1-.448 1-1v-8c0-.552-.448-1-1-1h-14c-.552 0-1 .448-1 1v2h-1c-.552 0-1 .448-1 1v8c0 .552.448 1 1 1zm3-11h12v2c0-.552-.448-1-1-1h-11zm-2 3h12v6h-12z"/><path d="m34 34h14c.552 0 1-.448 1-1v-8c0-.552-.448-1-1-1h-14c-.552 0-1 .448-1 1v8c0 .552.448 1 1 1zm1-8h12v6h-12z"/><path d="m44 45h-4c-.552 0-1 .448-1 1v4c0 .552.448 1 1 1h4c.552 0 1-.448 1-1v-4c0-.552-.448-1-1-1zm-1 4h-2v-2h2z"/><path d="m45.174 39.117-3.532-1.876c-.488-.259-1.093-.074-1.353.414l-1.877 3.532c-.259.488-.074 1.093.414 1.353l3.532 1.877c.146.077.307.117.469.117.098 0 .197-.015.292-.044.254-.078.466-.252.591-.487l1.877-3.533c.124-.234.15-.508.073-.762s-.252-.466-.486-.591zm-2.76 3.064-1.766-.938.938-1.766 1.766.938z"/></svg>